<?xml version="1.0" encoding="UTF-8"?>
<svg width="200px" height="200px" viewBox="0 0 200 200" version="1.1" xmlns="http://www.w3.org/2000/svg" xmlns:xlink="http://www.w3.org/1999/xlink">
    <!-- Generator: Sketch 58 (84663) - https://sketch.com -->
    <title>Artboard</title>
    <desc>Created with Sketch.</desc>
    <g id="Artboard" stroke="none" stroke-width="1" fill="none" fill-rule="evenodd">
        <circle id="Oval" fill="#EF5350" cx="100" cy="100" r="100"></circle>
        <g id="Group" transform="translate(8.000000, 63.000000)" fill="#FFFFFF" fill-rule="nonzero">
            <polygon id="Path" points="12.0547945 74 0 0 8.58447489 0 16.5296804 53.1703704 26.4840183 0.274074074 33.7899543 0.274074074 43.8356164 53.4444444 51.5981735 0 60 0 48.1278539 74 40.6392694 74 30.3196347 19.1851852 19.9086758 74"></polygon>
            <polygon id="Path" points="69 74 69 21 79 21 79 74"></polygon>
            <polygon id="Path" points="69 14 69 4 79 4 79 14"></polygon>
            <polygon id="Path" points="91 74 91 0 101 0 101 74"></polygon>
            <path d="M141,1 L141,74.2762836 L131.385507,74.2762836 L131.385507,70.9290954 C130.247337,72.1352954 129.004355,73.1153182 127.656522,73.8691932 C126.308689,74.6230682 124.766192,75 123.028986,75 C118.656017,75 115.391315,73.3867317 113.234783,70.1601467 C111.07825,66.9335617 110,61.4605113 110,53.7408313 L110,43.608802 C110,39.628342 110.329465,35.9344099 110.988406,32.5268949 C111.647346,29.1193799 112.890329,26.3903933 114.717391,24.3398533 C116.544454,22.2893133 119.225103,21.2640587 122.75942,21.2640587 C124.496627,21.2640587 126.084051,21.6560678 127.521739,22.4400978 C128.959427,23.2241278 130.247337,24.1890733 131.385507,25.3349633 L131.385507,1 L141,1 Z M125.275362,28.8630807 C123.058926,28.8630807 121.561357,29.9335671 120.782609,32.0745721 C120.003861,34.2155771 119.614493,36.793791 119.614493,39.809291 L119.614493,54.5550122 C119.614493,56.9674122 119.749274,59.1536169 120.018841,61.1136919 C120.288407,63.0737669 120.842508,64.6116489 121.681159,65.7273839 C122.519811,66.8431189 123.777769,67.400978 125.455072,67.400978 C126.353628,67.400978 127.312072,67.235128 128.330435,66.903423 C129.348797,66.571718 130.367145,66.0741679 131.385507,65.4107579 L131.385507,31.1246944 C130.546856,30.5215944 129.618363,29.9938898 128.6,29.5415648 C127.581637,29.0892398 126.473436,28.8630807 125.275362,28.8630807 Z" id="Combined-Shape"></path>
            <path d="M167.904348,21 C173.056064,21 176.710134,22.4242282 178.866667,25.2727273 C181.023199,28.1212264 182.101449,32.2423973 182.101449,37.6363636 L182.101449,61.6363636 C182.101449,63.2727355 182.146376,64.8484773 182.236232,66.3636364 C182.313251,67.6623442 182.412274,68.883114 182.533304,70.0259724 L182.768174,72.118183 C182.850841,72.8636359 182.928116,73.5818147 183,74.2727273 L174.194203,74.2727273 L173.52029,70.5909091 C173.250723,69.1060532 173.056039,67.7575818 172.936232,66.5454545 C172.337195,68.6060709 171.184067,70.5302941 169.476812,72.3181818 C167.769557,74.1060695 165.418372,75 162.423188,75 C160.386463,75 158.58938,74.4090968 157.031884,73.2272727 C155.474388,72.0454486 154.246381,70.5303123 153.347826,68.6818182 C152.449271,66.8333241 152,64.8787982 152,62.8181818 C152,59.5454382 152.539125,56.78789 153.617391,54.5454545 C154.695658,52.3030191 156.178251,50.4090986 158.065217,48.8636364 C159.952183,47.3181741 162.138635,45.9697027 164.624638,44.8181818 C167.11064,43.6666609 169.731387,42.54546 172.486957,41.4545455 L172.486957,37.7272727 C172.486957,35.60605 172.367151,33.8484918 172.127536,32.4545455 C171.887922,31.0605991 171.393724,30.015155 170.644928,29.3181818 C169.896132,28.6212086 168.772954,28.2727273 167.275362,28.2727273 C165.957481,28.2727273 164.894207,28.5757545 164.085507,29.1818182 C163.276808,29.7878818 162.692755,30.6515095 162.333333,31.7727273 C161.973911,32.893945 161.794203,34.2121136 161.794203,35.7272727 L161.794203,38.3636364 L152.269565,38 C152.389373,32.1817891 153.707234,27.8939532 156.223188,25.1363636 C158.739143,22.3787741 162.632824,21 167.904348,21 Z M172.486957,47.3636364 C170.989364,48.2121255 169.581649,49.0606018 168.263768,49.9090909 C166.945887,50.75758 165.792759,51.6515105 164.804348,52.5909091 C163.815937,53.5303077 163.037201,54.5909032 162.468116,55.7727273 C161.899031,56.9545514 161.614493,58.3030227 161.614493,59.8181818 C161.614493,61.9394045 162.003861,63.6060545 162.782609,64.8181818 C163.561357,66.0303091 164.699509,66.6363636 166.197101,66.6363636 C167.15556,66.6363636 168.054102,66.3636364 168.892754,65.8181818 C169.731405,65.2727245 170.48019,64.6515186 171.13913,63.9545455 C171.798071,63.2575723 172.247342,62.6969718 172.486957,62.2727273 L172.486957,62.2727273 Z" id="Combined-Shape"></path>
        </g>
    </g>
</svg>